<svg width="16" height="16" viewBox="0 0 16 16" fill="none" xmlns="http://www.w3.org/2000/svg">
<g id="edit / show">
<g id="edit / show_2">
<path d="M8.00004 5.99998C6.90537 5.99998 6.00004 6.90598 6.00004 7.99998C6.00004 9.09465 6.90537 9.99998 8.00004 9.99998C9.09404 9.99998 10 9.09465 10 7.99998C10 6.90598 9.09404 5.99998 8.00004 5.99998Z" fill="#A6A6A6"/>
<path d="M8.00004 3.33331C2.93871 3.33331 1.41759 7.74465 1.40366 7.78931L1.33337 7.99998L1.403 8.21065C1.41759 8.25531 2.93871 12.6666 8.00004 12.6666C13.0614 12.6666 14.5825 8.25531 14.5964 8.21065L14.6667 7.99998L14.5971 7.78931C14.5825 7.74465 13.0614 3.33331 8.00004 3.33331ZM8.00004 11.3333C4.45187 11.3333 3.07729 8.76931 2.74442 7.99998C3.07862 7.22798 4.45386 4.66665 8.00004 4.66665C11.5482 4.66665 12.9228 7.23065 13.2557 7.99998C12.9215 8.77198 11.5462 11.3333 8.00004 11.3333Z" fill="#A6A6A6"/>
</g>
</g>
</svg>
